<svg id="Layer_1" data-name="Layer 1" xmlns="http://www.w3.org/2000/svg" viewBox="0 0 42 42"><defs><style>.cls-1{fill:#fff;}.cls-2{fill:#1a171b;}.cls-3{fill:none;stroke:#000;stroke-miterlimit:22.93;stroke-width:1.4px;}.cls-4{fill:#ee8fab;}</style></defs><title>iconen nailtarget</title><path d="M21,41A20,20,0,1,0,1,21,20,20,0,0,0,21,41"/><path class="cls-1" d="M22.88,6.67h0l0-.12a1.88,1.88,0,0,1,3.64,1l0,.12h0l.06-.11a1.88,1.88,0,1,1,3.26,1.88l-.07.11h0l.08-.09a1.88,1.88,0,0,1,2.67,2.66l-.09.08h0l.11-.07a1.88,1.88,0,0,1,1.89,3.26l-.11.06h0l.11,0a1.88,1.88,0,1,1,1,3.63l-.12,0h.12a1.88,1.88,0,0,1,0,3.77h-.12l.12,0a1.88,1.88,0,0,1-1,3.64l-.12,0h0l.11.06a1.88,1.88,0,1,1-1.87,3.27l-.11-.06h0l.09.08A1.88,1.88,0,1,1,30,32.5l-.09-.09h0l.07.1a1.88,1.88,0,0,1-3.25,1.9l-.06-.11h0l0,.11a1.88,1.88,0,1,1-3.63,1l0-.12h0s0,.08,0,.12a1.88,1.88,0,0,1-3.77,0s0-.08,0-.12h0l0,.12a1.88,1.88,0,1,1-3.65-.94l0-.12h0l-.06.11a1.88,1.88,0,1,1-3.28-1.85l.06-.11h0l-.08.09A1.88,1.88,0,1,1,9.53,30l.09-.09h0l-.1.07A1.88,1.88,0,1,1,7.6,26.73l.11-.06h0l-.11,0a1.88,1.88,0,1,1-1-3.63l.12,0H6.57a1.88,1.88,0,1,1,0-3.77h.12l-.12,0a1.88,1.88,0,0,1,.93-3.65l.12,0h0l-.11-.06a1.88,1.88,0,1,1,1.84-3.29l.11.06h0l-.09-.08A1.88,1.88,0,1,1,12,9.57l.09.09h0L12,9.55a1.88,1.88,0,0,1,3.24-1.93l.06.11h0l0-.11a1.88,1.88,0,1,1,3.62-1l0,.12.22,0s0-.08,0-.12a1.88,1.88,0,0,1,3.77,0s0,.08,0,.12"/><path class="cls-2" d="M23.88,18.09a.91.91,0,1,1-1.18-.53.91.91,0,0,1,1.18.53"/><circle class="cls-3" cx="23.03" cy="18.41" r="0.91" transform="translate(-5.06 9.45) rotate(-20.94)"/><path class="cls-1" d="M24,18c.08.22.09.49-.13.58s-.08-.23-.16-.45-.44-.38-.22-.47.43.12.51.34"/><path class="cls-2" d="M19.47,18.09a.91.91,0,1,1-1.18-.53.91.91,0,0,1,1.18.53"/><circle class="cls-3" cx="18.62" cy="18.41" r="0.91" transform="matrix(0.93, -0.36, 0.36, 0.93, -5.35, 7.87)"/><path class="cls-1" d="M19.61,18c.08.22.09.49-.13.58s-.08-.23-.16-.45-.44-.38-.22-.47.43.12.51.34"/><path class="cls-4" d="M21.1,21.15c-4.57-.05-5,.14-4.52,2.64s.83,6,4.29,6,4.33-3.92,4.56-6.29.23-2.28-4.33-2.33"/><path d="M22.91,28.29c.34-.29.54-.68.46-.87s-.42-.1-.76.19-.54.68-.46.87.42.1.76-.19"/><path d="M18.86,28.42c-.34-.29-.54-.68-.46-.87s.42-.1.76.19.54.68.46.87-.42.1-.76-.19"/><path d="M29.2,17.71c1.43,1.68,2.88,4.81,2.5,5.15C29.81,24.6,21,8.08,29.2,17.71"/><path d="M12.91,17.71c-1.43,1.68-2.88,4.81-2.5,5.15,1.89,1.74,10.7-14.78,2.5-5.15"/></svg>