<svg id="Layer_1" data-name="Layer 1" xmlns="http://www.w3.org/2000/svg" viewBox="0 0 42 42"><defs><style>.cls-1{fill:#fff;}.cls-2{fill:#ee8fab;}</style></defs><title>iconen nailtarget</title><path d="M21,41A20,20,0,1,0,1,21,20,20,0,0,0,21,41"/><polygon class="cls-1" points="15.39 9.19 9.39 9.49 9.07 15.59 13.79 13.92 15.39 9.19"/><polygon class="cls-2" points="26.78 5.56 21.97 4.53 25.67 8.17 26.78 5.56"/><polygon class="cls-2" points="31.62 8.44 27.45 5.82 26.34 8.43 31.62 8.44"/><polygon class="cls-2" points="28.29 14.59 30.61 20.01 32.48 16.08 28.29 14.59"/><polygon class="cls-2" points="30.62 21.77 28.47 27.08 32.47 25.6 30.62 21.77"/><polygon class="cls-2" points="14.28 5.88 10.22 8.72 15.34 8.46 14.28 5.88"/><polygon class="cls-1" points="20.83 10.98 25.18 8.7 20.87 4.46 16.54 8.7 20.83 10.98"/><polygon class="cls-2" points="19.77 4.53 14.94 5.59 16.01 8.2 19.77 4.53"/><polygon class="cls-2" points="36.02 13.89 33.26 9.97 33.33 15.28 36.02 13.89"/><polygon class="cls-2" points="27.22 28.37 22.04 30.68 25.87 32.46 27.22 28.37"/><polygon class="cls-1" points="30.2 20.89 27.37 14.26 20.84 11.79 14.35 14.49 11.79 20.93 14.58 27.66 21.15 30.27 27.55 27.43 30.2 20.89"/><polygon class="cls-2" points="20.27 30.71 14.92 28.58 16.39 32.64 20.27 30.71"/><polygon class="cls-2" points="21.72 11.34 27.03 13.35 25.59 9.31 21.72 11.34"/><polygon class="cls-1" points="27.91 13.68 32.61 15.36 32.53 9.17 26.3 9.16 27.91 13.68"/><polygon class="cls-2" points="13.66 27.31 11.38 21.82 9.49 25.74 13.66 27.31"/><polygon class="cls-2" points="14.67 13.57 19.98 11.35 16.11 9.29 14.67 13.57"/><polygon class="cls-2" points="9.21 16.32 11.35 20.1 13.45 14.82 9.21 16.32"/><polygon class="cls-2" points="10.2 33.38 14.43 36.32 15.64 33.5 10.2 33.38"/><polygon class="cls-1" points="28.11 27.99 26.59 32.58 32.75 32.41 32.62 26.32 28.11 27.99"/><polygon class="cls-2" points="22.4 37.44 27.32 36.35 25.99 33.59 22.4 37.44"/><polygon class="cls-2" points="33.45 31.64 36.07 27.5 33.34 26.35 33.45 31.64"/><polygon class="cls-2" points="27.97 36.04 32.01 33.17 26.66 33.31 27.97 36.04"/><polygon class="cls-2" points="33.58 15.97 37.3 19.78 36.27 14.57 33.58 15.97"/><polygon class="cls-1" points="30.99 20.89 33.06 25.18 37.33 20.86 33.08 16.5 30.99 20.89"/><polygon class="cls-2" points="36.34 26.82 37.3 21.92 33.6 25.67 36.34 26.82"/><polygon class="cls-2" points="15.1 36.58 20.21 37.48 16.31 33.77 15.1 36.58"/><polygon class="cls-2" points="6.02 27.7 8.69 31.82 8.66 26.5 6.02 27.7"/><polygon class="cls-2" points="4.7 22.2 5.75 27.03 8.37 25.83 4.7 22.2"/><polygon class="cls-2" points="5.58 15.16 4.67 20.08 8.08 16.27 5.58 15.16"/><polygon class="cls-1" points="8.63 16.75 4.67 21.16 8.89 25.32 11 20.95 8.63 16.75"/><polygon class="cls-2" points="8.63 10.34 5.85 14.48 8.35 15.6 8.63 10.34"/><polygon class="cls-1" points="14.03 28.23 9.37 26.47 9.42 32.63 15.67 32.77 14.03 28.23"/><polygon class="cls-1" points="21.17 31.07 16.81 33.24 21.32 37.54 25.48 33.08 21.17 31.07"/></svg>