<svg id="Layer_1" data-name="Layer 1" xmlns="http://www.w3.org/2000/svg" viewBox="0 0 42 42"><defs><style>.cls-1{fill:#fff;}.cls-2{fill:#ee8fab;}</style></defs><title>iconen nailtarget</title><path d="M21,41A20,20,0,1,0,1,21,20,20,0,0,0,21,41"/><path class="cls-1" d="M21,37.67A16.67,16.67,0,1,0,4.33,21,16.67,16.67,0,0,0,21,37.67"/><path d="M18.48,39.21v-13l-4.87-8.89a1.43,1.43,0,1,1,.61-.32l4.95,9V39.21Z"/><polygon class="cls-2" points="20.45 17.61 20.85 15.79 15.49 15.68 21.96 13.48 21.48 15.13 26.51 15.75 20.45 17.61"/><path d="M22.83,39.21V26l4.95-9a1.44,1.44,0,1,1,.61.32l-4.87,8.88v13Z"/></svg>