<svg id="Layer_1" data-name="Layer 1" xmlns="http://www.w3.org/2000/svg" viewBox="0 0 42 42"><defs><style>.cls-1{fill:#aaa;}</style></defs><title>iconen nailtarget</title><path class="cls-1" d="M21,2A19,19,0,1,1,2,21,19,19,0,0,1,21,2m0-1A20,20,0,1,0,41,21,20,20,0,0,0,21,1Z"/><g id="Lozenge"><path class="cls-1" d="M31.78,16.6a4.76,4.76,0,0,0-.87-2.18,3.15,3.15,0,0,0-2.2-.93c-3.08-.22-7.7-.22-7.7-.22h0s-4.62,0-7.7.22a3.15,3.15,0,0,0-2.2.93,4.76,4.76,0,0,0-.87,2.18A33.27,33.27,0,0,0,10,20.16v1.67a33.27,33.27,0,0,0,.22,3.56,4.76,4.76,0,0,0,.87,2.18,3.73,3.73,0,0,0,2.43.94c1.76.17,7.48.22,7.48.22s4.62,0,7.7-.23a3.15,3.15,0,0,0,2.2-.93,4.76,4.76,0,0,0,.87-2.18A33.32,33.32,0,0,0,32,21.83V20.16A33.32,33.32,0,0,0,31.78,16.6ZM18.73,23.85V17.67l5.94,3.1Z"/></g></svg>