<svg id="Layer_1" data-name="Layer 1" xmlns="http://www.w3.org/2000/svg" viewBox="0 0 42 42"><defs><style>.cls-1{fill:#ee8fab;}.cls-2{fill:#fff;}</style></defs><title>iconen nailtarget</title><path d="M21,41A20,20,0,1,0,1,21,20,20,0,0,0,21,41"/><polygon class="cls-1" points="27.13 35 25.97 22.79 30.57 22.79 30.57 20.53 11.43 20.53 11.43 22.79 16.03 22.79 14.77 35 27.13 35"/><path class="cls-2" d="M16.83,14.91C16,12,15.89,9.43,16.55,9.25s1.75,1.91,2.55,4.69a4.91,4.91,0,0,0-2,1.79c-.08-.27-.16-.54-.24-.82m2.38,3.62a.95.95,0,1,1,.95-.95.95.95,0,0,1-.95.95m6.25-9.28c.65.18.53,2.71-.28,5.66-.08.28-.16.55-.24.82a4.91,4.91,0,0,0-2-1.79c.8-2.79,1.92-4.87,2.55-4.69m-3.61,8.33a.95.95,0,1,1,.95.95.95.95,0,0,1-.95-.95m3.88,2a5.56,5.56,0,0,0,.08-.9,5.48,5.48,0,0,0-.44-2.15A9.8,9.8,0,0,0,27,13c.81-2.95.37-5.64-1-6S23,8.76,22.16,11.71a11.46,11.46,0,0,0-.35,1.89,4.15,4.15,0,0,0-1.61,0,11.46,11.46,0,0,0-.35-1.89c-.81-2.95-2.55-5-3.9-4.67s-1.79,3.06-1,6a9.8,9.8,0,0,0,1.68,3.49,5.48,5.48,0,0,0-.44,2.15,5.56,5.56,0,0,0,.08.9Z"/></svg>