<svg id="Layer_1" data-name="Layer 1" xmlns="http://www.w3.org/2000/svg" viewBox="0 0 42 42"><defs><style>.cls-1{fill:#fff;}.cls-2{fill:#ee8fab;}</style></defs><title>iconen nailtarget</title><path d="M21,41A20,20,0,1,0,1,21,20,20,0,0,0,21,41"/><path class="cls-1" d="M23.11,32.41a6.59,6.59,0,0,0,9.3,0,6.71,6.71,0,0,0,1.93-4.68,6.39,6.39,0,0,0-1.93-4.61l-5.28-5.28a6.58,6.58,0,0,0-9.3,0,6.3,6.3,0,0,0-1.16,1.59l1.18,1.17a1.91,1.91,0,0,0,1.36.56,1.88,1.88,0,0,0,1.28-.48,3,3,0,0,1,2.29-1,3.36,3.36,0,0,1,2.2.91l4.68,4.69a3.11,3.11,0,1,1-4.4,4.4l-2.93-2.94a7.8,7.8,0,0,1-2.82.53,7.7,7.7,0,0,1-1.74-.2l5.35,5.35m-1.6-11.09h0Z"/><path class="cls-2" d="M24.15,21.41a1.93,1.93,0,0,0-2.65-.08,3.19,3.19,0,0,1-2.11,1A3.25,3.25,0,0,1,17,21.42l-4.68-4.68a3.11,3.11,0,1,1,4.4-4.4l2.93,2.93a7.79,7.79,0,0,1,4.57-.33L18.89,9.59a6.58,6.58,0,0,0-9.3,9.3l5.28,5.28a6.58,6.58,0,0,0,9.29,0,6.46,6.46,0,0,0,1.16-1.58Z"/></svg>