<svg id="Layer_1" data-name="Layer 1" xmlns="http://www.w3.org/2000/svg" viewBox="0 0 92 92"><defs><style>.cls-1{fill:none;stroke:#000;stroke-width:1.8px;}.cls-1,.cls-2{stroke-miterlimit:10;}.cls-2{fill:#1d1d1b;stroke:#1d1d1b;stroke-width:1.18px;}</style></defs><title>iconen nailtarget</title><path d="M46,3.29C69.82,3.29,89.2,22.45,89.2,46S69.82,88.71,46,88.71,2.8,69.55,2.8,46,22.18,3.29,46,3.29m0-1.8C21.15,1.49,1,21.42,1,46S21.15,90.51,46,90.51,91,70.58,91,46,70.85,1.49,46,1.49Z"/><path class="cls-1" d="M61.32,56.11A13.4,13.4,0,0,0,68.7,44.17V8.59a45.4,45.4,0,0,0-45.4,0V44.17a13.39,13.39,0,0,0,7,11.76"/><path class="cls-1" d="M46,75.3A29.73,29.73,0,0,0,61.4,71l0-42.06A10.19,10.19,0,0,0,51.12,18.83H40.88A10.19,10.19,0,0,0,30.63,29l0,42.07A29.73,29.73,0,0,0,46,75.3Z"/><path class="cls-2" d="M30.6,60.21V71a29.93,29.93,0,0,0,30.8,0V60.21a45.68,45.68,0,0,1-30.8,0Z"/></svg>