<svg id="Layer_1" data-name="Layer 1" xmlns="http://www.w3.org/2000/svg" viewBox="0 0 92 92"><defs><style>.cls-1{fill:#ee8fab;}.cls-2{fill:#1d1d1b;}.cls-3{fill:#fff;}.cls-4{stroke:#000;stroke-miterlimit:10;stroke-width:1.18px;}</style></defs><title>iconen nailtarget</title><path class="cls-1" d="M46,90.1A44.1,44.1,0,1,1,90.1,46,44.15,44.15,0,0,1,46,90.1Z"/><path d="M46,2.8A43.2,43.2,0,1,1,2.8,46,43.25,43.25,0,0,1,46,2.8M46,1A45,45,0,1,0,91,46,45,45,0,0,0,46,1Z"/><path class="cls-2" d="M46,75A29,29,0,0,1,31.2,71l0-42.2a9.67,9.67,0,0,1,9.66-9.66H51.12a9.67,9.67,0,0,1,9.66,9.66l0,42.2A29,29,0,0,1,46,75Z"/><path class="cls-2" d="M51.12,19.71a9.08,9.08,0,0,1,9.06,9.07l0,41.85a28.47,28.47,0,0,1-28.43,0l0-41.86a9.08,9.08,0,0,1,9.06-9.06H51.12m0-1.18H40.88A10.25,10.25,0,0,0,30.63,28.78l0,42.53a29.65,29.65,0,0,0,30.8,0l0-42.53A10.25,10.25,0,0,0,51.12,18.53Z"/><path class="cls-3" d="M30.57,55.14a12.68,12.68,0,0,1-6.37-11V7.67a44.06,44.06,0,0,1,43.59,0V44.15A12.62,12.62,0,0,1,61.1,55.32Z"/><path d="M46,2.8A43.17,43.17,0,0,1,66.9,8.19v36a11.73,11.73,0,0,1-6,10.27l-30.06-.18A11.78,11.78,0,0,1,25.1,44.15v-36A43.17,43.17,0,0,1,46,2.8M46,1A44.78,44.78,0,0,0,23.3,7.15v37a13.56,13.56,0,0,0,7,11.89l31,.18A13.57,13.57,0,0,0,68.7,44.15v-37A44.78,44.78,0,0,0,46,1Z"/><path class="cls-4" d="M46,75.62a29.48,29.48,0,0,0,15.4-4.31l0-42.53A10.25,10.25,0,0,0,51.12,18.53H40.88A10.25,10.25,0,0,0,30.63,28.78l0,42.53A29.48,29.48,0,0,0,46,75.62Z"/></svg>