<svg id="Layer_1" data-name="Layer 1" xmlns="http://www.w3.org/2000/svg" viewBox="0 0 92 92"><defs><style>.cls-1{fill:none;}.cls-2{fill:#1d1d1b;}.cls-3{stroke:#000;stroke-miterlimit:10;stroke-width:1.18px;}</style></defs><title>iconen nailtarget</title><path class="cls-1" d="M46.93,90.77A44.1,44.1,0,1,1,91,46.67,44.15,44.15,0,0,1,46.93,90.77Z"/><path d="M46.93,3.47a43.2,43.2,0,1,1-43.2,43.2,43.25,43.25,0,0,1,43.2-43.2m0-1.8a45,45,0,1,0,45,45,45,45,0,0,0-45-45Z"/><path class="cls-2" d="M46.93,75.7a29,29,0,0,1-14.8-4.05l0-42.2a9.67,9.67,0,0,1,9.66-9.66H52a9.67,9.67,0,0,1,9.66,9.66l0,42.19A29,29,0,0,1,46.93,75.7Z"/><path class="cls-2" d="M52,20.38a9.08,9.08,0,0,1,9.06,9.07l0,41.85a28.47,28.47,0,0,1-28.43,0l0-41.86a9.08,9.08,0,0,1,9.06-9.06H52m0-1.18H41.8A10.25,10.25,0,0,0,31.55,29.45l0,42.53a29.65,29.65,0,0,0,30.8,0l0-42.53A10.25,10.25,0,0,0,52,19.2Z"/><path class="cls-1" d="M31.5,55.81a12.68,12.68,0,0,1-6.37-11V8.34a44.06,44.06,0,0,1,43.59,0V44.82A12.62,12.62,0,0,1,62,56Z"/><path d="M46.93,3.47a43.17,43.17,0,0,1,20.9,5.39v36a11.73,11.73,0,0,1-6,10.27l-30.06-.18A11.78,11.78,0,0,1,26,44.82v-36a43.17,43.17,0,0,1,20.9-5.39m0-1.8a44.78,44.78,0,0,0-22.7,6.15v37a13.56,13.56,0,0,0,7,11.89l31,.18a13.57,13.57,0,0,0,7.37-12.07v-37a44.78,44.78,0,0,0-22.7-6.15Z"/><path class="cls-3" d="M46.93,76.29A29.48,29.48,0,0,0,62.33,72l0-42.53A10.25,10.25,0,0,0,52,19.2H41.8A10.25,10.25,0,0,0,31.55,29.45l0,42.53A29.48,29.48,0,0,0,46.93,76.29Z"/></svg>