<svg id="Layer_1" data-name="Layer 1" xmlns="http://www.w3.org/2000/svg" viewBox="0 0 92 92"><defs><style>.cls-1{fill:none;stroke:#000;stroke-miterlimit:10;stroke-width:1.8px;}</style></defs><title>iconen nailtarget</title><path d="M46,2.8A43.2,43.2,0,1,1,2.8,46,43.25,43.25,0,0,1,46,2.8M46,1A45,45,0,1,0,91,46,45,45,0,0,0,46,1Z"/><path class="cls-1" d="M46,75.62a29.48,29.48,0,0,0,15.4-4.31l0-42.53A10.25,10.25,0,0,0,51.12,18.53H40.88A10.25,10.25,0,0,0,30.63,28.78l0,42.53A29.48,29.48,0,0,0,46,75.62Z"/><path class="cls-1" d="M46,2A44.78,44.78,0,0,0,23.3,8.15v37a13.56,13.56,0,0,0,7,11.89l31,.18A13.57,13.57,0,0,0,68.7,45.15v-37A44.78,44.78,0,0,0,46,2Z"/><path d="M61.37,28.78A10.25,10.25,0,0,0,51.12,18.53H40.88A10.25,10.25,0,0,0,30.63,28.78l0,31.59a45.2,45.2,0,0,0,30.8,0Z"/></svg>