<svg xmlns="http://www.w3.org/2000/svg" xmlns:xlink="http://www.w3.org/1999/xlink" viewBox="0 0 1920 1080"><defs><style>.cls-1{fill:url(#New_Gradient_Swatch);}.cls-2{fill:url(#radial-gradient);}.cls-3{fill:url(#radial-gradient-2);}.cls-4{fill:url(#radial-gradient-3);}.cls-5{fill:url(#radial-gradient-4);}.cls-6{fill:url(#radial-gradient-5);}.cls-7{fill:#fff;}.cls-8{fill:url(#linear-gradient);}</style><radialGradient id="New_Gradient_Swatch" cx="960" cy="540" r="701.25" gradientTransform="translate(-123.73 -31.5) scale(1.13 1.06)" gradientUnits="userSpaceOnUse"><stop offset="0" stop-color="#b3c7ff"/><stop offset="0.31" stop-color="#b0c2fb"/><stop offset="0.65" stop-color="#a6b5ef"/><stop offset="1" stop-color="#959fdb"/></radialGradient><radialGradient id="radial-gradient" cx="-109.93" cy="582.2" r="550.22" gradientTransform="translate(895.27 622.15) scale(0.42 0.01)" gradientUnits="userSpaceOnUse"><stop offset="0" stop-color="#1d1d1b" stop-opacity="0.08"/><stop offset="1" stop-color="#1d1d1b" stop-opacity="0"/></radialGradient><radialGradient id="radial-gradient-2" cx="655.63" cy="583.23" r="550.22" gradientTransform="translate(895.27 623.25) scale(0.42 0.01)" xlink:href="#radial-gradient"/><radialGradient id="radial-gradient-3" cx="-775.85" cy="715.13" r="701.18" gradientTransform="translate(825.24 735.68) scale(0.33 0.07)" xlink:href="#radial-gradient"/><radialGradient id="radial-gradient-4" cx="1475.9" cy="581.39" r="550.22" gradientTransform="translate(895.27 621.29) scale(0.42 0.01)" xlink:href="#radial-gradient"/><radialGradient id="radial-gradient-5" cx="187.01" cy="619.26" r="550.22" gradientTransform="translate(337.39 623.82) scale(0.3 0.01)" xlink:href="#radial-gradient"/><linearGradient id="linear-gradient" x1="406.85" y1="571.79" x2="531.47" y2="571.79" gradientUnits="userSpaceOnUse"><stop offset="0" stop-color="#fff" stop-opacity="0"/><stop offset="0.85" stop-color="#6f6f6f" stop-opacity="0.2"/><stop offset="1" stop-opacity="0.35"/></linearGradient></defs><title>accessoires</title><g id="background"><rect class="cls-1" width="1920" height="1080"/></g><g id="schaduw"><ellipse class="cls-2" cx="848.61" cy="629.57" rx="330.25" ry="15"/><ellipse class="cls-3" cx="1173.58" cy="630.67" rx="330.25" ry="15"/><ellipse class="cls-4" cx="549.31" cy="785.67" rx="255.64" ry="50"/><ellipse class="cls-5" cx="1521.77" cy="628.7" rx="330.25" ry="15"/><ellipse class="cls-6" cx="393.88" cy="629.43" rx="235" ry="15"/></g><g id="tekst"><path class="cls-7" d="M200.29,628.87c28.26,0,40.69-29.11,54.54-60.47l50.58-114.16h2l67.54,138.18c8.19,17,19.78,36.45,36.45,36.45v1.7H305.12v-1.7c20.91,0,23.17-18.37,14.69-36.45l-8.48-18.08h-56l-1.7,4c-10.17,28.82-3.39,50.58,27.69,50.58v1.7h-81.1Zm109.64-57.36L282.52,513.3,256.8,571.51Z"/><path class="cls-7" d="M406.85,570.94c0-38.15,32.21-61,69.51-61,35,0,53.12,20.35,53.12,38.71,0,14.13-10.74,22-22,22a22.49,22.49,0,0,1-22.61-22.61c0-11,7.35-20.06,17.8-22-3.11-7.91-9.61-14.69-20.63-14.69-23.74,0-29.11,31.08-29.11,54.54,0,39,14.69,60.75,38.43,60.75,17.24,0,30.24-11.87,38.71-22l1.41,1.13c-9.32,11.59-26.84,28-58.78,28C429.18,633.67,406.85,602.87,406.85,570.94Z"/><path class="cls-8" d="M406.85,570.94c0-38.15,32.21-61,69.51-61,35,0,53.12,20.35,53.12,38.71,0,14.13-10.74,22-22,22a22.49,22.49,0,0,1-22.61-22.61c0-11,7.35-20.06,17.8-22-3.11-7.91-9.61-14.69-20.63-14.69-23.74,0-29.11,31.08-29.11,54.54,0,39,14.69,60.75,38.43,60.75,17.24,0,30.24-11.87,38.71-22l1.41,1.13c-9.32,11.59-26.84,28-58.78,28C429.18,633.67,406.85,602.87,406.85,570.94Z"/><path class="cls-7" d="M687.74,572.07c0-34.19,26.28-62.17,67.25-62.17,36.17,0,59.34,22,60.75,56.52H733.8c.28,37.3,14.69,60.19,40.41,60.19,18.37,0,31.08-11.87,39.56-22l1.41,1.13c-10.17,12.43-26.56,28-59.34,28C710.91,633.67,687.74,604.29,687.74,572.07Zm46.06-7.91h38.15c0-11.59.28-52.84-17.8-52.84C738.6,511.32,733.8,543,733.8,564.16Z"/><path class="cls-7" d="M837.51,628.31l-1.13-37.58,1.13-.28C848,612.2,856.72,632,882.44,632c19.78,0,23.17-11.59,23.17-18.37,0-31.37-69.23-18.37-69.23-65.56,0-25.15,19.5-38.15,51.15-38.15,17.52,0,29.39,4,44.08.57L933,551.16l-1.13.28c-9.33-20.91-20.63-39.84-41.82-39.84-15.54,0-20.06,9.89-20.06,17.52,0,29.39,69.8,17.24,69.8,64.43,0,26.84-22.61,40.13-55.39,40.13C868.59,633.67,849.09,630.57,837.51,628.31Z"/><path class="cls-7" d="M963,628.31l-1.13-37.58,1.13-.28C973.42,612.2,982.18,632,1007.9,632c19.78,0,23.17-11.59,23.17-18.37,0-31.37-69.23-18.37-69.23-65.56,0-25.15,19.5-38.15,51.15-38.15,17.52,0,29.39,4,44.08.57l1.41,40.69-1.13.28c-9.33-20.91-20.63-39.84-41.82-39.84-15.54,0-20.06,9.89-20.06,17.52,0,29.39,69.8,17.24,69.8,64.43,0,26.84-22.61,40.13-55.38,40.13C994.05,633.67,974.56,630.57,963,628.31Z"/><path class="cls-7" d="M1083.91,571.79c0-37.3,30.52-61.88,71.21-61.88s71.21,24.58,71.21,61.88-30.52,61.88-71.21,61.88S1083.91,609.09,1083.91,571.79Zm94.95,0c0-38.43-5.93-59.91-23.74-59.91s-23.74,21.48-23.74,59.91,5.93,59.91,23.74,59.91S1178.86,610.22,1178.86,571.79Z"/><path class="cls-7" d="M1240.18,628.87c15.26,0,17-9.61,17-23.74V541c0-14.13-1.7-23.74-17-23.74v-1.7l61.88-5.65v95.23c0,14.13,1.7,23.74,17,23.74v1.7h-78.84Zm13-158c0-14.41,11.59-24.58,26-24.58s26,10.17,26,24.58c0,14.69-11.59,24.87-26,24.87S1253.18,485.6,1253.18,470.91Z"/><path class="cls-7" d="M1327.49,628.87c15.26,0,17-10.46,17-24.58V542.12c0-14.13-1.7-24.58-17-24.58v-1.7l60.47-5.65V550.6c5.37-20.63,18.08-40.69,38.15-40.69,16.11,0,24.3,12.43,24.3,24a23.1,23.1,0,0,1-22.89,23.45c-12.72,0-23.45-10.17-22.89-25.15-6.22,3.39-11.87,9.61-15.26,18.65v53.41c0,15.82,4.52,24.58,19.78,24.58v1.7h-81.67Z"/><path class="cls-7" d="M1457.76,572.07c0-34.19,26.28-62.17,67.25-62.17,36.17,0,59.34,22,60.75,56.52h-81.95c.28,37.3,14.69,60.19,40.41,60.19,18.37,0,31.08-11.87,39.56-22l1.41,1.13c-10.17,12.43-26.56,28-59.34,28C1480.94,633.67,1457.76,604.29,1457.76,572.07Zm46.06-7.91H1542c0-11.59.28-52.84-17.8-52.84C1508.63,511.32,1503.82,543,1503.82,564.16Z"/><path class="cls-7" d="M1607.53,628.31l-1.13-37.58,1.13-.28C1618,612.2,1626.75,632,1652.46,632c19.78,0,23.17-11.59,23.17-18.37,0-31.37-69.23-18.37-69.23-65.56,0-25.15,19.5-38.15,51.15-38.15,17.52,0,29.39,4,44.08.57l1.41,40.69-1.13.28c-9.33-20.91-20.63-39.84-41.82-39.84-15.54,0-20.06,9.89-20.06,17.52,0,29.39,69.8,17.24,69.8,64.43,0,26.84-22.61,40.13-55.38,40.13C1638.61,633.67,1619.12,630.57,1607.53,628.31Z"/></g><g id="foto"><image width="350" height="215" transform="matrix(0.32, 0.85, -0.85, 0.32, 639.06, 395.79)" xlink:href="accessoires.png"/></g></svg>