<svg xmlns="http://www.w3.org/2000/svg" xmlns:xlink="http://www.w3.org/1999/xlink" viewBox="0 0 1920 1080"><defs><style>.cls-1{fill:url(#New_Gradient_Swatch_copy);}.cls-2{fill:url(#radial-gradient);}.cls-3{fill:url(#radial-gradient-2);}.cls-4{fill:url(#radial-gradient-3);}.cls-5{fill:url(#radial-gradient-4);}.cls-6{fill:url(#radial-gradient-5);}.cls-7{fill:url(#radial-gradient-6);}.cls-8{fill:url(#radial-gradient-7);}.cls-9{fill:url(#radial-gradient-8);}.cls-10{fill:url(#radial-gradient-9);}.cls-11{fill:#fff;}.cls-12{fill:url(#linear-gradient);}</style><radialGradient id="New_Gradient_Swatch_copy" cx="960" cy="512.17" r="701.25" gradientTransform="translate(-123.73 -2.04) scale(1.13 1.06)" gradientUnits="userSpaceOnUse"><stop offset="0" stop-color="#a8d5bc"/><stop offset="0.36" stop-color="#a3d1b7"/><stop offset="0.77" stop-color="#96c6aa"/><stop offset="1" stop-color="#8bbd9f"/></radialGradient><radialGradient id="radial-gradient" cx="919.91" cy="604.28" r="550.22" gradientTransform="translate(140.66 603.07) scale(0.32 0.03)" gradientUnits="userSpaceOnUse"><stop offset="0" stop-color="#1d1d1b" stop-opacity="0.08"/><stop offset="1" stop-color="#a8d5bc" stop-opacity="0"/></radialGradient><radialGradient id="radial-gradient-2" cx="1795.43" cy="607.76" r="550.22" gradientTransform="translate(140.66 606.7) scale(0.32 0.03)" xlink:href="#radial-gradient"/><radialGradient id="radial-gradient-3" cx="2654.85" cy="607.76" r="550.22" gradientTransform="translate(140.66 606.7) scale(0.32 0.03)" xlink:href="#radial-gradient"/><radialGradient id="radial-gradient-4" cx="3787.36" cy="639.89" r="773.95" gradientTransform="matrix(0, 0.12, -0.08, 0, 1612.3, 181.7)" xlink:href="#radial-gradient"/><radialGradient id="radial-gradient-5" cx="2992.28" cy="638.43" r="773.95" gradientTransform="matrix(0, 0.17, -0.08, 0, 1609.38, 62.11)" xlink:href="#radial-gradient"/><radialGradient id="radial-gradient-6" cx="3056.38" cy="787.32" r="773.95" gradientTransform="translate(2064.34 581.1) rotate(180) scale(0.2 0.13)" gradientUnits="userSpaceOnUse"><stop offset="0" stop-color="#1d1d1b" stop-opacity="0.15"/><stop offset="0.88" stop-color="#83a491" stop-opacity="0.04"/><stop offset="1" stop-color="#a8d5bc" stop-opacity="0"/></radialGradient><radialGradient id="radial-gradient-7" cx="3358.73" cy="749.74" r="773.95" gradientTransform="translate(2129.95 724.95) rotate(180) scale(0.22 0.02)" gradientUnits="userSpaceOnUse"><stop offset="0" stop-color="#1d1d1b" stop-opacity="0.2"/><stop offset="0.78" stop-color="#698274" stop-opacity="0.09"/><stop offset="1" stop-color="#a8d5bc" stop-opacity="0"/></radialGradient><radialGradient id="radial-gradient-8" cx="3203.64" cy="604.96" r="550.22" gradientTransform="translate(140.66 603.79) scale(0.32 0.03)" xlink:href="#radial-gradient"/><radialGradient id="radial-gradient-9" cx="2642.57" cy="702.23" r="309.4" gradientTransform="matrix(0.02, 0.1, -0.05, 0, 1257.46, 273.11)" gradientUnits="userSpaceOnUse"><stop offset="0" stop-color="#1d1d1b" stop-opacity="0.4"/><stop offset="0.02" stop-color="#1d1d1b" stop-opacity="0.29"/><stop offset="0.03" stop-color="#1d1d1b" stop-opacity="0.2"/><stop offset="0.79" stop-color="#6d8677" stop-opacity="0.09"/><stop offset="1" stop-color="#a8d5bc" stop-opacity="0"/></radialGradient><linearGradient id="linear-gradient" x1="1163.21" y1="534.27" x2="1266.72" y2="606.75" gradientUnits="userSpaceOnUse"><stop offset="0" stop-color="#fff" stop-opacity="0"/><stop offset="0.86" stop-color="#5e5e5e" stop-opacity="0.16"/><stop offset="1" stop-opacity="0.25"/></linearGradient></defs><title>electro</title><g id="background"><rect class="cls-1" width="1920" height="1080"/></g><g id="schaduw"><ellipse class="cls-2" cx="436.26" cy="621.2" rx="250" ry="15"/><ellipse class="cls-3" cx="717.6" cy="624.94" rx="250" ry="15"/><ellipse class="cls-4" cx="993.76" cy="624.94" rx="250" ry="15"/><ellipse class="cls-5" cx="1562.42" cy="645.94" rx="61.54" ry="95.36" transform="translate(-67.17 195.57) rotate(-7.01)"/><ellipse class="cls-6" cx="1559.61" cy="570.54" rx="61.54" ry="132.19" transform="translate(-57.99 194.67) rotate(-7.01)"/><ellipse class="cls-7" cx="1451.9" cy="476" rx="155.9" ry="105.38"/><ellipse class="cls-8" cx="1402.26" cy="710.59" rx="168.56" ry="15.12"/><ellipse class="cls-9" cx="1170.11" cy="621.94" rx="250" ry="15"/></g><g id="foto"><image width="330" height="320" transform="translate(1244.93 398.42)" xlink:href="electro.png"/></g><g id="tekst"><ellipse class="cls-10" cx="1272.7" cy="541.57" rx="24.6" ry="31.6" transform="translate(-110.42 534.98) rotate(-22.78)"/><path class="cls-11" d="M363,631.13c17.52,0,22.61-5.65,22.61-28.82V488.71c0-23.17-5.09-28.82-22.61-28.82v-1.7h156l4.24,59.62-1.13.28c-7.35-32.5-28.26-57.93-67.25-57.93H434.45v84.49h8.76c29.67,0,44.36-21.48,49.73-43h1.13V589h-1.13c-5.37-21.19-20.06-42.39-49.73-42.39h-8.76v84.21h21.76c41.54,0,59.62-32.78,68.38-62.17l1.13.28-5.37,63.86H363Z"/><path class="cls-11" d="M542.4,631.13c15.26,0,17-9.61,17-23.74V475.15c0-14.13-1.7-23.74-17-23.74v-1.7l61.88-5.65V607.4c0,14.13,1.7,23.74,17,23.74v1.7H542.4Z"/><path class="cls-11" d="M633.39,574.33c0-34.19,26.28-62.17,67.25-62.17,36.17,0,59.34,22,60.75,56.52H679.45c.28,37.3,14.69,60.19,40.41,60.19,18.37,0,31.08-11.87,39.56-22l1.41,1.13c-10.17,12.43-26.56,28-59.34,28C656.56,635.94,633.39,606.55,633.39,574.33Zm46.06-7.91H717.6c0-11.59.28-52.84-17.8-52.84C684.25,513.58,679.45,545.23,679.45,566.42Z"/><path class="cls-11" d="M778.63,573.2c0-38.15,32.21-61,69.51-61,35,0,53.12,20.35,53.12,38.71,0,14.13-10.74,22-22,22a22.49,22.49,0,0,1-22.61-22.61c0-11,7.35-20.06,17.8-22-3.11-7.91-9.61-14.69-20.63-14.69-23.74,0-29.11,31.08-29.11,54.54,0,39,14.69,60.75,38.43,60.75,17.24,0,30.24-11.87,38.71-22l1.41,1.13c-9.32,11.59-26.84,28-58.78,28C801,635.94,778.63,605.13,778.63,573.2Z"/><path class="cls-11" d="M931.23,596.66V519.23H914v-4h17.24V484.76L976.16,476v39.28h34.47v4H976.16v85.06c0,14.41,4.8,19.78,13.85,19.78,11.3,0,20.06-8.76,26.56-16.39l1.41,1.13c-10.17,12.15-25.43,27.13-49.45,27.13C946.49,635.94,931.23,623.22,931.23,596.66Z"/><path class="cls-11" d="M1018.54,631.13c15.26,0,17-10.46,17-24.58V544.38c0-14.13-1.7-24.58-17-24.58v-1.7l60.47-5.65v40.41c5.37-20.63,18.08-40.69,38.15-40.69,16.11,0,24.3,12.43,24.3,24a23.1,23.1,0,0,1-22.89,23.45c-12.72,0-23.45-10.17-22.89-25.15-6.22,3.39-11.87,9.61-15.26,18.65v53.41c0,15.82,4.52,24.58,19.78,24.58v1.7h-81.67Z"/><path class="cls-11" d="M1148.81,574.05c0-37.3,30.52-61.88,71.21-61.88,33.68,0,60.39,16.84,68.59,43.8a58.78,58.78,0,0,1,1.45,5.83c-7.87,4-33.37,34-40.34,69.23a88.08,88.08,0,0,1-29.7,4.91C1179.33,635.94,1148.81,611.35,1148.81,574.05Zm94.95,0c0-38.43-5.93-59.91-23.74-59.91s-23.74,21.48-23.74,59.91S1202.22,634,1220,634,1243.76,612.48,1243.76,574.05Z"/><path class="cls-12" d="M1148.81,574.05c0-37.3,30.52-61.88,71.21-61.88,33.68,0,60.39,16.84,68.59,43.8a58.78,58.78,0,0,1,1.45,5.83c-7.87,4-33.37,34-40.34,69.23a88.08,88.08,0,0,1-29.7,4.91C1179.33,635.94,1148.81,611.35,1148.81,574.05Zm94.95,0c0-38.43-5.93-59.91-23.74-59.91s-23.74,21.48-23.74,59.91S1202.22,634,1220,634,1243.76,612.48,1243.76,574.05Z"/></g></svg>