<svg xmlns="http://www.w3.org/2000/svg" xmlns:xlink="http://www.w3.org/1999/xlink" viewBox="0 0 1920 1080"><defs><style>.cls-1{fill:url(#radial-gradient);}.cls-2{fill:url(#radial-gradient-2);}.cls-3{fill:url(#radial-gradient-3);}.cls-4{fill:url(#radial-gradient-4);}.cls-5{fill:url(#radial-gradient-5);}.cls-6{fill:#fff;}.cls-7{fill:url(#linear-gradient);}.cls-8{fill:url(#linear-gradient-2);}.cls-9{fill:url(#linear-gradient-3);}</style><radialGradient id="radial-gradient" cx="960" cy="522.16" r="789.73" gradientTransform="translate(-2.31 49.3) scale(1 0.94)" gradientUnits="userSpaceOnUse"><stop offset="0" stop-color="#cf6459"/><stop offset="0.38" stop-color="#c96057"/><stop offset="0.88" stop-color="#b95452"/><stop offset="1" stop-color="#b45050"/></radialGradient><radialGradient id="radial-gradient-2" cx="588.06" cy="599.82" r="619.64" gradientTransform="translate(640.72 637.84) scale(0.36 0.01)" gradientUnits="userSpaceOnUse"><stop offset="0" stop-opacity="0.08"/><stop offset="0.86" stop-opacity="0.03"/><stop offset="1" stop-opacity="0"/></radialGradient><radialGradient id="radial-gradient-3" cx="1358.5" cy="599.82" r="619.64" xlink:href="#radial-gradient-2"/><radialGradient id="radial-gradient-4" cx="1111.07" cy="647.85" r="112.74" gradientTransform="translate(-456.49 156.71) scale(1.52 0.67)" gradientUnits="userSpaceOnUse"><stop offset="0" stop-opacity="0.1"/><stop offset="0.87" stop-opacity="0.03"/><stop offset="1" stop-opacity="0"/></radialGradient><radialGradient id="radial-gradient-5" cx="1207" cy="775.56" r="69.59" gradientTransform="translate(3496.79 1099.56) rotate(180) scale(1.7 0.67)" gradientUnits="userSpaceOnUse"><stop offset="0.12" stop-opacity="0.08"/><stop offset="1" stop-opacity="0"/></radialGradient><linearGradient id="linear-gradient" x1="918.48" y1="631.3" x2="1021.65" y2="528.13" gradientUnits="userSpaceOnUse"><stop offset="0.53" stop-color="#fff" stop-opacity="0"/><stop offset="1" stop-color="#1d1d1b" stop-opacity="0.15"/></linearGradient><linearGradient id="linear-gradient-2" x1="1250.44" y1="640.89" x2="1178.55" y2="516.38" gradientUnits="userSpaceOnUse"><stop offset="0.2" stop-color="#fff" stop-opacity="0"/><stop offset="0.33" stop-color="#bbbbba" stop-opacity="0.06"/><stop offset="1" stop-color="#1d1d1b" stop-opacity="0.2"/></linearGradient><linearGradient id="linear-gradient-3" x1="1161.6" y1="627.02" x2="1023.37" y2="462.29" gradientUnits="userSpaceOnUse"><stop offset="0" stop-color="#fff" stop-opacity="0"/><stop offset="1" stop-color="#1d1d1b" stop-opacity="0.4"/></linearGradient></defs><title>gels</title><g id="achtergrond"><rect class="cls-1" width="1920" height="1080"/></g><g id="schaduw"><ellipse class="cls-2" cx="854.51" cy="644.38" rx="318.53" ry="15"/><ellipse class="cls-3" cx="1134.61" cy="644.38" rx="318.53" ry="15"/><ellipse class="cls-4" cx="1230.52" cy="582.88" rx="166.41" ry="107.44" transform="translate(-78.7 208.88) rotate(-9.4)"/><ellipse class="cls-5" cx="1448.33" cy="587.54" rx="118.87" ry="68.85" transform="translate(-76.53 244.53) rotate(-9.4)"/></g><g id="tekst"><path class="cls-6" d="M645.11,549.23c0-68.1,57.28-105.33,120-105.33,26.41,0,57.28,6.68,80.83.64l5.73,66.19-1.59.32c-16.87-48.05-51.24-64.92-79.24-64.92-48.37,0-66.51,50-66.51,103.74,0,48.05,14.64,96.42,63.65,96.42,12.73,0,25.46-3.18,37.87-8.91V585.51c0-26.1-6.68-34.69-27.69-34.69v-1.91h106v1.91c-19.73,0-25.46,6.36-25.46,32.46v51.24c-22,6-57.28,13.68-92,13.68C685.52,648.2,645.11,606.19,645.11,549.23Z"/><path class="cls-6" d="M894.6,578.51c0-38.51,29.6-70,75.74-70,40.73,0,66.83,24.82,68.42,63.65H946.47c.32,42,16.55,67.78,45.51,67.78,20.69,0,35-13.37,44.55-24.82l1.59,1.27c-11.46,14-29.91,31.51-66.83,31.51C920.7,647.88,894.6,614.79,894.6,578.51Zm51.87-8.91h43c0-13,.32-59.51-20-59.51C951.89,510.09,946.47,545.73,946.47,569.6Z"/><path class="cls-7" d="M894.6,578.51c0-38.51,29.6-70,75.74-70,40.73,0,66.83,24.82,68.42,63.65H946.47c.32,42,16.55,67.78,45.51,67.78,20.69,0,35-13.37,44.55-24.82l1.59,1.27c-11.46,14-29.91,31.51-66.83,31.51C920.7,647.88,894.6,614.79,894.6,578.51Zm51.87-8.91h43c0-13,.32-59.51-20-59.51C951.89,510.09,946.47,545.73,946.47,569.6Z"/><path class="cls-6" d="M1052.13,642.47c17.18,0,19.09-10.82,19.09-26.73V466.81c0-15.91-1.91-26.73-19.09-26.73v-1.91l69.69-6.36V615.74c0,15.91,1.91,26.73,19.09,26.73v1.91h-88.79Z"/><path class="cls-6" d="M1159.69,641.83l-1.27-42.33,1.27-.32c11.77,24.5,21.64,46.78,50.6,46.78,22.28,0,26.1-13,26.1-20.69,0-35.32-78-20.68-78-73.83,0-28.32,22-43,57.6-43,19.73,0,33.1,4.46,49.64.64l1.59,45.82-1.27.32c-10.5-23.55-23.23-44.87-47.1-44.87-17.5,0-22.59,11.14-22.59,19.73,0,33.1,78.6,19.41,78.6,72.56,0,30.23-25.46,45.19-62.37,45.19C1194.7,647.88,1172.74,644.38,1159.69,641.83Z"/><path class="cls-8" d="M1159.69,641.83l-1.27-42.33,1.27-.32c11.77,24.5,21.64,46.78,50.6,46.78,22.28,0,26.1-13,26.1-20.69,0-35.32-78-20.68-78-73.83,0-28.32,22-43,57.6-43,19.73,0,33.1,4.46,49.64.64l1.59,45.82-1.27.32c-10.5-23.55-23.23-44.87-47.1-44.87-17.5,0-22.59,11.14-22.59,19.73,0,33.1,78.6,19.41,78.6,72.56,0,30.23-25.46,45.19-62.37,45.19C1194.7,647.88,1172.74,644.38,1159.69,641.83Z"/><path class="cls-9" d="M1052.13,642.47c17.18,0,19.09-10.82,19.09-26.73V466.81c0-15.91-1.91-26.73-19.09-26.73v-1.91l69.69-6.36V615.74c0,15.91,1.91,26.73,19.09,26.73v1.91h-88.79Z"/></g><g id="foto"><image width="345" height="270" transform="translate(934.89 206.96)" xlink:href="gels.png"/></g></svg>