<svg xmlns="http://www.w3.org/2000/svg" xmlns:xlink="http://www.w3.org/1999/xlink" viewBox="0 0 1920 1080"><defs><style>.cls-1{fill:url(#New_Gradient_Swatch_copy_2);}.cls-2{fill:url(#radial-gradient);}.cls-3{fill:url(#radial-gradient-2);}.cls-4{fill:url(#radial-gradient-3);}.cls-5{fill:url(#radial-gradient-4);}.cls-6{fill:url(#radial-gradient-5);}.cls-7{fill:url(#radial-gradient-6);}.cls-8{fill:url(#radial-gradient-7);}.cls-9{fill:#fff;}.cls-10{fill:url(#linear-gradient);}</style><radialGradient id="New_Gradient_Swatch_copy_2" cx="960" cy="540" r="701.25" gradientTransform="translate(-123.73 -31.5) scale(1.13 1.06)" gradientUnits="userSpaceOnUse"><stop offset="0" stop-color="#8cb5c8"/><stop offset="0.36" stop-color="#88b3c7"/><stop offset="0.74" stop-color="#7cacc3"/><stop offset="1" stop-color="#6ea5be"/></radialGradient><radialGradient id="radial-gradient" cx="3229.65" cy="731.65" r="1018.33" gradientTransform="translate(630.1 677.1) scale(0.16 0.08)" gradientUnits="userSpaceOnUse"><stop offset="0" stop-color="#1d1d1b" stop-opacity="0.2"/><stop offset="1" stop-color="#1d1d1b" stop-opacity="0"/></radialGradient><radialGradient id="radial-gradient-2" cx="1518.66" cy="631.85" r="550.22" gradientTransform="translate(17.37 616.57) scale(0.39 0.02)" gradientUnits="userSpaceOnUse"><stop offset="0" stop-color="#1d1d1b" stop-opacity="0.08"/><stop offset="0.96" stop-color="#1d1d1b" stop-opacity="0.02"/><stop offset="1" stop-color="#1d1d1b" stop-opacity="0"/></radialGradient><radialGradient id="radial-gradient-3" cx="819.5" cy="662.74" r="550.22" gradientTransform="translate(1380.89 762.69) rotate(180) scale(0.23 0.07)" gradientUnits="userSpaceOnUse"><stop offset="0" stop-color="#1d1d1b" stop-opacity="0.08"/><stop offset="1" stop-color="#1d1d1b" stop-opacity="0"/></radialGradient><radialGradient id="radial-gradient-4" cx="799.57" cy="670.36" r="550.22" gradientTransform="translate(1372.94 729.57) rotate(180) scale(0.23 0.07)" xlink:href="#radial-gradient-3"/><radialGradient id="radial-gradient-5" cx="2548.47" cy="631.85" r="550.22" gradientTransform="translate(122.57 616.57) scale(0.32 0.02)" xlink:href="#radial-gradient-2"/><radialGradient id="radial-gradient-6" cx="4362.44" cy="630.92" r="550.22" gradientTransform="translate(-81.62 615.58) scale(0.32 0.02)" xlink:href="#radial-gradient-2"/><radialGradient id="radial-gradient-7" cx="3735.64" cy="769.96" r="598.79" gradientTransform="translate(547.29 704.73) scale(0.15 0.05)" gradientUnits="userSpaceOnUse"><stop offset="0" stop-color="#1d1d1b" stop-opacity="0.15"/><stop offset="0.84" stop-color="#1d1d1b" stop-opacity="0.09"/><stop offset="1" stop-color="#1d1d1b" stop-opacity="0"/></radialGradient><linearGradient id="linear-gradient" x1="1221.38" y1="639.87" x2="1328.17" y2="454.91" gradientUnits="userSpaceOnUse"><stop offset="0" stop-color="#1d1d1b" stop-opacity="0.15"/><stop offset="0.16" stop-color="#1d1d1b" stop-opacity="0.06"/><stop offset="1" stop-color="#1d1d1b" stop-opacity="0"/></linearGradient></defs><title>liquids</title><g id="background"><rect class="cls-1" width="1920" height="1080"/></g><g id="schaduw"><ellipse class="cls-2" cx="1161.18" cy="737.26" rx="236.77" ry="90.75" transform="translate(-89.61 165.06) rotate(-7.83)"/><ellipse class="cls-3" cx="602.97" cy="627.71" rx="300" ry="15"/><ellipse class="cls-4" cx="1194.92" cy="714.65" rx="176.55" ry="61.63" transform="translate(-133.8 298.65) rotate(-13.5)"/><ellipse class="cls-5" cx="1191.49" cy="680.99" rx="176.55" ry="61.63" transform="translate(-126.04 296.92) rotate(-13.5)"/><ellipse class="cls-6" cx="941.49" cy="627.71" rx="250" ry="15"/><ellipse class="cls-7" cx="1320.19" cy="626.71" rx="250" ry="15"/><ellipse class="cls-8" cx="1108.64" cy="742.34" rx="127.23" ry="45.21" transform="translate(-33.99 53.47) rotate(-2.72)"/></g><g id="tekst"><path class="cls-9" d="M467.53,629.66c17.52,0,22.61-5.65,22.61-28.82V487.24c0-23.17-5.09-28.82-22.61-28.82v-1.7h99.75v1.7c-17.52,0-28.26,4.8-28.26,31.65V629.37h17c38.43,0,62.17-29.67,69.51-62.17l1.13.28-4.52,63.86H467.53Z"/><path class="cls-9" d="M638.49,629.66c15.26,0,17-9.61,17-23.74V541.77c0-14.13-1.7-23.74-17-23.74v-1.7l61.88-5.65v95.23c0,14.13,1.7,23.74,17,23.74v1.7H638.49Zm13-158c0-14.41,11.59-24.58,26-24.58s26,10.17,26,24.58c0,14.69-11.59,24.87-26,24.87S651.49,486.39,651.49,471.69Z"/><path class="cls-9" d="M798.43,675.71c15.26,0,19.78-9,19.78-24.58v-35.6c-7.06,8.76-19.5,18.93-39,18.93-33.63,0-49.17-31.08-49.17-60.19,0-34.47,21.48-63.58,63.86-63.58,17.52,0,26.84,5.09,33.06,9.61L862.29,511l.85.28V651.13c0,14.13,1.7,24.58,17,24.58v1.7H798.43ZM777,570.6c0,28.82,6.22,52,23.45,52,7.35,0,13.28-4.24,17.8-9.33V527.08c-.85-6.22-5.37-14.41-15.54-14.41C781.76,512.67,777,545.45,777,570.6Z"/><path class="cls-9" d="M900.72,595.75V542.9c0-14.13-1.7-24.58-17-24.58v-1.7L945.65,511v89.86c0,13.85,6.22,19.5,15,19.5,8.19,0,15.26-4.52,21.19-10.17V542.9c0-14.13-2.26-24.58-14.13-24.58v-1.7l59.06-5.65v94.1c0,14.13,1.7,24.58,17,24.58v1.7H983.23V611.29c-11.87,12.43-28,23.17-46.91,23.17C917.11,634.46,900.72,623.44,900.72,595.75Z"/><path class="cls-9" d="M1173.74,573.14c0-33.63,20.63-62.45,60.19-62.45,13.28,0,22,3.39,28,6.5V473.67c0-17.24-7.35-23.74-22.61-23.74v-1.7l67.54-5.65V605.92c0,14.13,1.7,23.74,17,23.74v1.7h-60.47v-15c-7.91,9.33-20.06,18.08-38.15,18.08C1192.39,634.46,1173.74,605.07,1173.74,573.14ZM1261.9,615V527.08c-3.67-7.63-9.89-13.85-17.8-13.85-19.21,0-23.45,37-23.45,58.21,0,29.67,8.48,51.15,25.15,51.15C1252.58,622.59,1257.95,618.92,1261.9,615Z"/><path class="cls-10" d="M1173.74,573.14c0-33.63,20.63-62.45,60.19-62.45,13.28,0,22,3.39,28,6.5V473.67c0-17.24-7.35-23.74-22.61-23.74v-1.7l67.54-5.65V605.92c0,14.13,1.7,23.74,17,23.74v1.7h-60.47v-15c-7.91,9.33-20.06,18.08-38.15,18.08C1192.39,634.46,1173.74,605.07,1173.74,573.14ZM1261.9,615V527.08c-3.67-7.63-9.89-13.85-17.8-13.85-19.21,0-23.45,37-23.45,58.21,0,29.67,8.48,51.15,25.15,51.15C1252.58,622.59,1257.95,618.92,1261.9,615Z"/><path class="cls-9" d="M1340.18,629.09,1339,591.51l1.13-.28c10.46,21.76,19.21,41.54,44.93,41.54,19.78,0,23.17-11.59,23.17-18.37,0-31.37-69.23-18.37-69.23-65.56,0-25.15,19.5-38.15,51.15-38.15,17.52,0,29.39,4,44.08.57l1.41,40.69-1.13.28c-9.33-20.91-20.63-39.84-41.82-39.84-15.54,0-20.06,9.89-20.06,17.52,0,29.39,69.8,17.24,69.8,64.43,0,26.84-22.61,40.13-55.38,40.13C1371.26,634.46,1351.77,631.35,1340.18,629.09Z"/></g><g id="foto"><image width="390" height="960" transform="translate(1005.18 300.06) rotate(-0.12) scale(0.48)" xlink:href="liquids.png" href="liquids.png"/></g></svg>