<svg xmlns="http://www.w3.org/2000/svg" xmlns:xlink="http://www.w3.org/1999/xlink" viewBox="0 0 1920 1080"><defs><style>.cls-1{fill:url(#radial-gradient);}.cls-2{fill:url(#radial-gradient-2);}.cls-3{fill:url(#radial-gradient-3);}.cls-4{fill:url(#radial-gradient-4);}.cls-5{fill:url(#radial-gradient-5);}.cls-6{fill:url(#radial-gradient-6);}.cls-7{fill:url(#radial-gradient-7);}.cls-8{fill:url(#radial-gradient-8);}.cls-9{fill:url(#radial-gradient-9);}.cls-10{fill:#fff;}.cls-11{fill:url(#linear-gradient);}.cls-12{fill:url(#linear-gradient-2);}.cls-13{fill:url(#radial-gradient-10);}.cls-14{fill:url(#radial-gradient-11);}.cls-15{fill:url(#linear-gradient-3);}.cls-16{fill:url(#linear-gradient-4);}.cls-17{fill:url(#radial-gradient-12);}.cls-18{fill:url(#radial-gradient-13);}</style><radialGradient id="radial-gradient" cx="967.69" cy="542.69" fx="1141.4404354336234" fy="611.6917728377848" r="950.21" gradientTransform="translate(0 32.66) scale(1 0.94)" gradientUnits="userSpaceOnUse"><stop offset="0" stop-color="#9294a9"/><stop offset="0.31" stop-color="#8d8fa3"/><stop offset="0.72" stop-color="#808193"/><stop offset="1" stop-color="#737484"/></radialGradient><radialGradient id="radial-gradient-2" cx="271.92" cy="614.76" r="697.21" gradientTransform="translate(695.38 618.73) scale(0.6 0.02)" gradientUnits="userSpaceOnUse"><stop offset="0" stop-opacity="0.08"/><stop offset="1" stop-opacity="0"/></radialGradient><radialGradient id="radial-gradient-3" cx="676.85" cy="614.76" r="697.21" xlink:href="#radial-gradient-2"/><radialGradient id="radial-gradient-4" cx="881.58" cy="656.72" r="670.32" gradientTransform="matrix(0, 0.23, -0.11, 0, 1314.71, 396.41)" gradientUnits="userSpaceOnUse"><stop offset="0.3" stop-opacity="0.1"/><stop offset="1" stop-opacity="0"/></radialGradient><radialGradient id="radial-gradient-5" cx="1111.34" cy="644.05" r="670.32" gradientTransform="matrix(0, 0.13, -0.19, 0, 1374.26, 374.72)" xlink:href="#radial-gradient-4"/><radialGradient id="radial-gradient-6" cx="-25.71" cy="659.02" r="670.32" gradientTransform="matrix(0, 0.23, -0.11, 0, 1112.79, 552.52)" xlink:href="#radial-gradient-4"/><radialGradient id="radial-gradient-7" cx="628.25" cy="665.75" r="118.72" gradientTransform="matrix(0, 0.23, -0.11, 0, 1242.18, 491.65)" xlink:href="#radial-gradient-4"/><radialGradient id="radial-gradient-8" cx="-2201.65" cy="713.49" r="670.32" gradientTransform="matrix(0, 0.13, -0.05, 0, 533.24, 941.94)" xlink:href="#radial-gradient-4"/><radialGradient id="radial-gradient-9" cx="-3056.58" cy="712.51" r="670.32" gradientTransform="matrix(0, 0.12, -0.05, 0, 427.03, 992.01)" xlink:href="#radial-gradient-4"/><linearGradient id="linear-gradient" x1="512.66" y1="461.51" x2="694.27" y2="613.9" gradientUnits="userSpaceOnUse"><stop offset="0" stop-opacity="0.25"/><stop offset="1" stop-opacity="0"/></linearGradient><linearGradient id="linear-gradient-2" x1="1176.36" y1="523.72" x2="1278.9" y2="609.76" gradientUnits="userSpaceOnUse"><stop offset="0.21" stop-opacity="0.25"/><stop offset="1" stop-opacity="0"/></linearGradient><radialGradient id="radial-gradient-10" cx="31.64" cy="654.61" r="670.32" gradientTransform="matrix(-0.14, 0, 0, -0.17, 1101.29, 696.66)" xlink:href="#radial-gradient-4"/><radialGradient id="radial-gradient-11" cx="560.46" cy="664.68" r="118.72" gradientTransform="matrix(0, 0.23, -0.11, 0, 1229.48, 495.67)" xlink:href="#radial-gradient-4"/><linearGradient id="linear-gradient-3" x1="571.65" y1="442.93" x2="727.79" y2="573.95" xlink:href="#linear-gradient"/><linearGradient id="linear-gradient-4" x1="544.17" y1="609.46" x2="579.6" y2="639.2" gradientUnits="userSpaceOnUse"><stop offset="0" stop-opacity="0.15"/><stop offset="1" stop-opacity="0"/></linearGradient><radialGradient id="radial-gradient-12" cx="-1434.19" cy="687.63" r="608.87" gradientTransform="matrix(0, 0.11, -0.16, 0, 653.14, 681.06)" xlink:href="#radial-gradient-4"/><radialGradient id="radial-gradient-13" cx="-974.93" cy="706.17" r="407.67" gradientTransform="matrix(0, 0.11, -0.06, 0, 608.95, 732.83)" xlink:href="#radial-gradient-4"/></defs><title>nailliners</title><g id="background_gradient" data-name="background gradient"><rect class="cls-1" x="-6.39" y="-4.76" width="1932.78" height="1089.52"/></g><g id="schaduw"><ellipse class="cls-2" cx="859.41" cy="629.85" rx="460.96" ry="15"/><ellipse class="cls-3" cx="1103.68" cy="629.85" rx="460.96" ry="15"/><ellipse class="cls-4" cx="1241.1" cy="597.44" rx="89.18" ry="174.25" transform="translate(284.15 1588.15) rotate(-71.7)"/><ellipse class="cls-5" cx="1248.46" cy="524.21" rx="154.78" ry="102.79" transform="translate(358.73 1544.9) rotate(-71.7)"/><ellipse class="cls-6" cx="1039.99" cy="546.66" rx="89.18" ry="174.25" transform="translate(194.4 1362.37) rotate(-71.7)"/><ellipse class="cls-7" cx="1167.86" cy="634.91" rx="15.79" ry="30.86" transform="translate(198.33 1544.32) rotate(-71.7)"/><ellipse class="cls-8" cx="495.6" cy="653.94" rx="44.01" ry="99.96" transform="translate(-237.2 1023.09) rotate(-79.58)"/><ellipse class="cls-9" cx="395.64" cy="625.48" rx="37.22" ry="91.63" transform="translate(-291.08 901.46) rotate(-79.58)"/></g><g id="nailart"><path class="cls-10" d="M511.43,629.49c31.08,0,36.07-16.65,36.07-61.6V504.62c0-28.3-8.33-43.29-33.3-43.29v-1.67h64.93l96,99.34V522.93c0-45-5-61.6-36.07-61.6v-1.67H714v1.67c-31.08,0-36.07,16.65-36.07,61.6V633.38l-1.39.28L550.28,501.84v66c0,45,5,61.6,36.07,61.6v1.67l-74.92.11Z"/><path class="cls-11" d="M511.43,629.49c31.08,0,36.07-16.65,36.07-61.6V504.62c0-28.3-8.33-43.29-33.3-43.29v-1.67h64.93l96,99.34V522.93c0-45-5-61.6-36.07-61.6v-1.67H714v1.67c-31.08,0-36.07,16.65-36.07,61.6V633.38l-1.39.28L550.28,501.84v66c0,45,5,61.6,36.07,61.6v1.67l-74.92.11Z"/><path class="cls-10" d="M711.78,601.46c0-23.59,21.92-32.47,48.84-32.47a129.11,129.11,0,0,1,30.25,3.61V543.47c0-15.82-3.33-29.42-21.37-29.42-11.65,0-18.87,5.83-23.59,12.21A22.2,22.2,0,0,1,758.12,546c0,11.38-9.16,20.26-21.09,20.26-13,0-20-10.82-20-20.81,0-18.32,22.2-32.75,54.94-32.75,29.14,0,63,11.66,63,45V617c0,5.27,2.77,7.77,7.21,7.77,6.94,0,13.32-6.94,17.76-13.6l1.39.83c-7.77,11.1-17.2,21.92-36.63,21.92-17.2,0-27.19-8.6-31.36-19.42-7.49,10.27-19.7,19.7-40.79,19.7C728.43,634.21,711.78,622,711.78,601.46Zm79.09,13V574.83a55.74,55.74,0,0,0-13.32-2.22c-14.43,0-20.53,10-20.53,26.64,0,13.6,4.16,25.81,16.09,25.81C778.94,625.05,785,622,790.87,614.51Z"/><path class="cls-10" d="M859.41,629.49c15,0,16.65-9.43,16.65-23.31v-63c0-13.87-1.66-23.31-16.65-23.31v-1.67l60.77-5.55v93.52c0,13.88,1.67,23.31,16.65,23.31v1.67H859.41Zm12.76-155.12c0-14.15,11.38-24.14,25.53-24.14s25.53,10,25.53,24.14c0,14.43-11.38,24.42-25.53,24.42S872.17,488.8,872.17,474.37Z"/><path class="cls-10" d="M943.49,629.49c15,0,16.65-9.43,16.65-23.31V476.31c0-13.87-1.66-23.31-16.65-23.31v-1.67l60.77-5.55V606.18c0,13.88,1.67,23.31,16.65,23.31v1.67H943.49Z"/><path class="cls-10" d="M1033.12,601.46c0-23.59,21.92-32.47,48.84-32.47a129.11,129.11,0,0,1,30.25,3.61V543.47c0-15.82-3.33-29.42-21.37-29.42-11.65,0-18.87,5.83-23.59,12.21a22.2,22.2,0,0,1,12.21,19.7c0,11.38-9.16,20.26-21.09,20.26-13,0-20-10.82-20-20.81,0-18.32,22.2-32.75,54.94-32.75,29.14,0,63,11.66,63,45V617c0,5.27,2.78,7.77,7.21,7.77,6.94,0,13.32-6.94,17.76-13.6l1.39.83c-7.77,11.1-17.2,21.92-36.63,21.92-17.21,0-27.19-8.6-31.36-19.42-7.49,10.27-19.7,19.7-40.79,19.7C1049.77,634.21,1033.12,622,1033.12,601.46Zm79.09,13V574.83a55.74,55.74,0,0,0-13.32-2.22c-14.43,0-20.53,10-20.53,26.64,0,13.6,4.16,25.81,16.09,25.81C1100.27,625.05,1106.38,622,1112.21,614.51Z"/><path class="cls-10" d="M1180.75,629.49c15,0,16.65-10.27,16.65-24.14v-61c0-13.87-1.67-24.14-16.65-24.14v-1.67l59.38-5.55v39.68c5.27-20.26,17.76-40,37.46-40,15.82,0,23.87,12.21,23.87,23.59a22.68,22.68,0,0,1-22.48,23c-12.49,0-23-10-22.48-24.7-6.1,3.33-11.65,9.43-15,18.31v52.45c0,15.54,4.44,24.14,19.42,24.14v1.67h-80.2Z"/><path class="cls-12" d="M1180.75,629.49c15,0,16.65-10.27,16.65-24.14v-61c0-13.87-1.67-24.14-16.65-24.14v-1.67l59.38-5.55v39.68c5.27-20.26,17.76-40,37.46-40,15.82,0,23.87,12.21,23.87,23.59a22.68,22.68,0,0,1-22.48,23c-12.49,0-23-10-22.48-24.7-6.1,3.33-11.65,9.43-15,18.31v52.45c0,15.54,4.44,24.14,19.42,24.14v1.67h-80.2Z"/><path class="cls-10" d="M1323.38,595.64v-76h-16.93v-3.88h16.93v-30l44.12-8.6v38.57h33.85v3.88H1367.5v83.53c0,14.15,4.72,19.42,13.6,19.42,11.1,0,19.7-8.6,26.08-16.09l1.39,1.11c-10,11.93-25,26.64-48.56,26.64C1338.36,634.21,1323.38,621.72,1323.38,595.64Z"/></g><g id="foto"><image width="340" height="402" transform="translate(1072.61 335.35) rotate(11.52) scale(0.74)" xlink:href="nailart-1.png"/></g><g id="Na_t_schaduw" data-name="Na t + schaduw"><ellipse class="cls-13" cx="1096.9" cy="588.19" rx="105.91" ry="133.64" transform="translate(194.01 1444.9) rotate(-71.7)"/><ellipse class="cls-14" cx="1155.36" cy="623.47" rx="15.79" ry="30.86" transform="translate(200.62 1524.61) rotate(-71.7)"/><path class="cls-10" d="M1033.12,601.46c0-23.59,21.92-32.47,48.84-32.47a129.11,129.11,0,0,1,30.25,3.61V543.47c0-15.82-3.33-29.42-21.37-29.42-11.65,0-18.87,5.83-23.59,12.21a22.2,22.2,0,0,1,12.21,19.7c0,11.38-9.16,20.26-21.09,20.26-13,0-20-10.82-20-20.81,0-18.32,22.2-32.75,54.94-32.75,29.14,0,63,11.66,63,45V617c0,5.27,2.78,7.77,7.21,7.77l-5.32,7.5a42.44,42.44,0,0,1-12.16,1.66c-17.21,0-27.19-8.6-31.36-19.42-7.49,10.27-19.7,19.7-40.79,19.7C1049.77,634.21,1033.12,622,1033.12,601.46Zm79.09,13V574.83a55.74,55.74,0,0,0-13.32-2.22c-14.43,0-20.53,10-20.53,26.64,0,13.6,4.16,25.81,16.09,25.81C1100.27,625.05,1106.38,622,1112.21,614.51Z"/><path class="cls-10" d="M1323.38,595.64v-76h-16.93v-3.88h16.93v-30l44.12-8.6v38.57h33.85v3.88H1367.5v83.53c0,14.15,4.72,19.42,13.6,19.42,11.1,0,19.7-8.6,26.08-16.09l1.39,1.11c-10,11.93-25,26.64-48.56,26.64C1338.36,634.21,1323.38,621.72,1323.38,595.64Z"/><path class="cls-10" d="M557.6,459.66h21.53l96,99.34V522.93c0-45-5-61.6-36.07-61.6v-1.67H714v1.67c-31.08,0-36.07,16.65-36.07,61.6V633.38l-1.39.28L555.78,507.59Z"/><path class="cls-15" d="M557.6,459.66h21.53l96,99.34V522.93c0-45-5-61.6-36.07-61.6v-1.67H714v1.67c-31.08,0-36.07,16.65-36.07,61.6V633.38l-1.39.28L555.78,507.59Z"/><path class="cls-10" d="M552.3,601.61c3.5,19.88,12.51,27.88,34.05,27.88v1.67h-35S550.75,592.81,552.3,601.61Z"/><path class="cls-16" d="M552.3,601.61c3.5,19.88,12.51,27.88,34.05,27.88v1.67h-35S550.75,592.81,552.3,601.61Z"/><ellipse class="cls-17" cx="543.76" cy="519.35" rx="119.21" ry="78.26" transform="translate(-120.07 872.51) rotate(-71.7)"/><ellipse class="cls-18" cx="564.05" cy="622.9" rx="31.66" ry="52.4" transform="translate(-204.46 962.81) rotate(-71.7)"/></g><g id="foto_links" data-name="foto links"><image width="354" height="381" transform="translate(304.36 380.1) scale(0.74)" xlink:href="nailart-3.png"/></g></svg>