<svg xmlns="http://www.w3.org/2000/svg" xmlns:xlink="http://www.w3.org/1999/xlink" viewBox="0 0 1920 1080"><defs><style>.cls-1{fill:url(#New_Gradient_Swatch_copy);}.cls-2{fill:url(#radial-gradient);}.cls-3{fill:url(#radial-gradient-2);}.cls-4{fill:url(#radial-gradient-3);}.cls-5{fill:url(#radial-gradient-4);}.cls-6{fill:url(#radial-gradient-5);}.cls-7{fill:url(#radial-gradient-6);}.cls-8{fill:url(#radial-gradient-7);}.cls-9{fill:url(#radial-gradient-8);}.cls-10{fill:url(#radial-gradient-9);}.cls-11{fill:url(#radial-gradient-10);}.cls-12{fill:url(#radial-gradient-11);}.cls-13{fill:url(#radial-gradient-12);}.cls-14{fill:url(#radial-gradient-13);}.cls-15{fill:url(#radial-gradient-14);}.cls-16{fill:url(#radial-gradient-15);}.cls-17{fill:url(#radial-gradient-16);}.cls-18{fill:url(#radial-gradient-17);}.cls-19{fill:url(#radial-gradient-18);}.cls-20{fill:url(#radial-gradient-19);}.cls-21{fill:url(#radial-gradient-20);}.cls-22{fill:url(#radial-gradient-21);}.cls-23{fill:url(#radial-gradient-22);}.cls-24{fill:url(#radial-gradient-23);}.cls-25{fill:#fff;}.cls-26{fill:url(#radial-gradient-24);}.cls-27{fill:url(#radial-gradient-25);}.cls-28{fill:url(#radial-gradient-26);}.cls-29{fill:url(#radial-gradient-27);}.cls-30{fill:url(#radial-gradient-28);}</style><radialGradient id="New_Gradient_Swatch_copy" cx="960" cy="540" r="701.25" gradientTransform="translate(-123.73 -31.5) scale(1.13 1.06)" gradientUnits="userSpaceOnUse"><stop offset="0" stop-color="#d5b4a8"/><stop offset="0.35" stop-color="#d3afa5"/><stop offset="0.74" stop-color="#cda29d"/><stop offset="1" stop-color="#c79595"/></radialGradient><radialGradient id="radial-gradient" cx="2056.64" cy="782.87" r="550.22" gradientTransform="translate(1049.5 729.13) scale(0.08 0.03)" gradientUnits="userSpaceOnUse"><stop offset="0" stop-opacity="0.15"/><stop offset="1" stop-opacity="0"/></radialGradient><radialGradient id="radial-gradient-2" cx="2180.55" cy="790.49" r="550.22" gradientTransform="translate(1053.92 739.53) scale(0.08 0.03)" xlink:href="#radial-gradient"/><radialGradient id="radial-gradient-3" cx="-192.71" cy="590.13" r="550.22" gradientTransform="translate(745.9 615.43) scale(0.51 0.02)" gradientUnits="userSpaceOnUse"><stop offset="0" stop-opacity="0.08"/><stop offset="0.91" stop-opacity="0.02"/><stop offset="1" stop-opacity="0"/></radialGradient><radialGradient id="radial-gradient-4" cx="700.7" cy="590.13" r="550.22" xlink:href="#radial-gradient-3"/><radialGradient id="radial-gradient-5" cx="2095.75" cy="586.47" r="550.22" gradientTransform="matrix(0, 0.11, -0.02, 0, 1331.64, 358.07)" gradientUnits="userSpaceOnUse"><stop offset="0" stop-opacity="0.15"/><stop offset="0.91" stop-opacity="0.03"/><stop offset="1" stop-opacity="0"/></radialGradient><radialGradient id="radial-gradient-6" cx="2758.92" cy="587.54" r="550.22" gradientTransform="matrix(0, 0.12, -0.02, 0, 1393.92, 286.85)" xlink:href="#radial-gradient-5"/><radialGradient id="radial-gradient-7" cx="3438.52" cy="588.35" r="550.22" gradientTransform="matrix(0, 0.12, -0.02, 0, 1467.27, 238.77)" xlink:href="#radial-gradient-5"/><radialGradient id="radial-gradient-8" cx="3980.5" cy="587.54" r="550.22" gradientTransform="matrix(0, 0.12, -0.02, 0, 1526.35, 198.98)" xlink:href="#radial-gradient-5"/><radialGradient id="radial-gradient-9" cx="2474.75" cy="643.79" r="550.22" gradientTransform="matrix(0, 0.12, -0.02, 0, 1340.56, 362.83)" xlink:href="#radial-gradient-3"/><radialGradient id="radial-gradient-10" cx="3745" cy="647.79" r="550.22" gradientTransform="matrix(0, 0.12, -0.02, 0, 1476.65, 275.4)" xlink:href="#radial-gradient-3"/><radialGradient id="radial-gradient-11" cx="3901.8" cy="617.88" r="550.22" gradientTransform="translate(1029.28 696.6) scale(0.12 0.02)" gradientUnits="userSpaceOnUse"><stop offset="0" stop-opacity="0.1"/><stop offset="0.91" stop-opacity="0.02"/><stop offset="1" stop-opacity="0"/></radialGradient><radialGradient id="radial-gradient-12" cx="3098.05" cy="568.71" r="550.22" gradientTransform="translate(1020.51 614.12) scale(0.12 0.06)" gradientUnits="userSpaceOnUse"><stop offset="0" stop-opacity="0.05"/><stop offset="0.91" stop-opacity="0.01"/><stop offset="1" stop-opacity="0"/></radialGradient><radialGradient id="radial-gradient-13" cx="3659.04" cy="605.81" r="550.22" gradientTransform="translate(1027.84 687.68) scale(0.12 0.02)" xlink:href="#radial-gradient-11"/><radialGradient id="radial-gradient-14" cx="3523.7" cy="751.4" r="234.38" gradientTransform="matrix(0.01, 1.06, -0.01, 0.04, 1406.39, -2913.15)" gradientUnits="userSpaceOnUse"><stop offset="0" stop-opacity="0.2"/><stop offset="1" stop-opacity="0"/></radialGradient><radialGradient id="radial-gradient-15" cx="364.98" cy="589.41" r="234.38" gradientTransform="matrix(1.06, -0.01, 0.04, 0.01, 766.35, 725.38)" gradientUnits="userSpaceOnUse"><stop offset="0" stop-opacity="0.25"/><stop offset="1" stop-opacity="0"/></radialGradient><radialGradient id="radial-gradient-16" cx="-993.8" cy="589.75" r="234.38" gradientTransform="matrix(1.06, -0.01, 0.04, 0.01, 2276.94, 753.93)" xlink:href="#radial-gradient-15"/><radialGradient id="radial-gradient-17" cx="-1822.86" cy="593.58" r="234.38" gradientTransform="matrix(1.06, -0.01, 0.04, 0.01, 3200.44, 767.95)" xlink:href="#radial-gradient-15"/><radialGradient id="radial-gradient-18" cx="-2629.76" cy="596.45" r="234.38" gradientTransform="matrix(1.06, -0.01, 0.04, 0.01, 4098.82, 782.4)" xlink:href="#radial-gradient-15"/><radialGradient id="radial-gradient-19" cx="-3258.95" cy="600.24" r="234.38" gradientTransform="matrix(1.06, -0.01, 0.04, 0.01, 4800.11, 792.21)" xlink:href="#radial-gradient-15"/><radialGradient id="radial-gradient-20" cx="4349.62" cy="749.51" r="234.38" gradientTransform="matrix(0.01, 1.06, -0.01, 0.04, 1436.62, -3821.01)" xlink:href="#radial-gradient-14"/><radialGradient id="radial-gradient-21" cx="4954.02" cy="746.51" r="234.38" gradientTransform="matrix(0.01, 1.06, -0.01, 0.04, 1457.61, -4486.63)" xlink:href="#radial-gradient-14"/><radialGradient id="radial-gradient-22" cx="4454.33" cy="544.32" r="412.04" gradientTransform="matrix(-0.09, -2.27, 0, -0.17, 2000.14, 10828.58)" xlink:href="#radial-gradient-5"/><radialGradient id="radial-gradient-23" cx="5688.22" cy="487.98" r="795.09" gradientTransform="matrix(-0.04, 0.16, -0.1, 0, 1884.06, -342.3)" xlink:href="#radial-gradient-5"/><radialGradient id="radial-gradient-24" cx="4181.35" cy="485.08" r="795.09" gradientTransform="matrix(-0.03, 0.12, -0.08, 0, 1507.85, 15.03)" xlink:href="#radial-gradient-3"/><radialGradient id="radial-gradient-25" cx="1298.88" cy="529.06" r="25.94" gradientTransform="translate(-65.86 14.4) scale(1.05 0.98)" gradientUnits="userSpaceOnUse"><stop offset="0" stop-opacity="0.9"/><stop offset="1" stop-opacity="0"/></radialGradient><radialGradient id="radial-gradient-26" cx="1421.39" cy="598.1" r="25.94" gradientTransform="matrix(0, 0.66, -1.14, 0, 2108.25, -331.68)" gradientUnits="userSpaceOnUse"><stop offset="0" stop-opacity="0.5"/><stop offset="1" stop-opacity="0"/></radialGradient><radialGradient id="radial-gradient-27" cx="1286.43" cy="571.86" r="25.94" gradientTransform="matrix(0, 0.66, -1.14, 0, 2010.49, -307.62)" xlink:href="#radial-gradient-26"/><radialGradient id="radial-gradient-28" cx="1375.47" cy="514.56" r="25.94" gradientTransform="translate(-1692.27 134.14) scale(2.24 0.75)" xlink:href="#radial-gradient-26"/></defs><title>starters</title><g id="background"><rect class="cls-1" width="1920" height="1080"/></g><g id="schaduw"><ellipse class="cls-2" cx="1223.77" cy="751.62" rx="65.92" ry="28.28" transform="translate(-133.54 282.29) rotate(-12.48)"/><ellipse class="cls-3" cx="1238.69" cy="762.24" rx="65.92" ry="28.28" transform="translate(-178.47 435.09) rotate(-18.61)"/><ellipse class="cls-4" cx="648.04" cy="624.42" rx="395.07" ry="15"/><ellipse class="cls-5" cx="1101.71" cy="624.42" rx="395.07" ry="15"/><ellipse class="cls-6" cx="1322.7" cy="584.82" rx="15" ry="84.18" transform="translate(313.48 1620.7) rotate(-69.6)"/><ellipse class="cls-7" cx="1384.97" cy="611.42" rx="15" ry="91.53" transform="translate(283.48 1650.04) rotate(-67.14)"/><ellipse class="cls-8" cx="1458.31" cy="643.29" rx="15" ry="91.53" transform="translate(298.96 1737.09) rotate(-67.14)"/><ellipse class="cls-9" cx="1517.4" cy="667.26" rx="15" ry="91.53" transform="translate(313.01 1806.2) rotate(-67.14)"/><ellipse class="cls-10" cx="1330.76" cy="653.97" rx="15" ry="91.53" transform="translate(211.13 1626.09) rotate(-67.14)"/><ellipse class="cls-11" cx="1466.79" cy="715.98" rx="15" ry="91.53" transform="translate(237.17 1789.35) rotate(-67.14)"/><ellipse class="cls-12" cx="1488.31" cy="706.01" rx="91.53" ry="15" transform="translate(-79.31 199.97) rotate(-7.49)"/><ellipse class="cls-13" cx="1384.97" cy="645.42" rx="91.53" ry="54.19" transform="translate(-72.3 185.99) rotate(-7.49)"/><ellipse class="cls-14" cx="1458.31" cy="696.91" rx="91.53" ry="15" transform="translate(-78.38 195.98) rotate(-7.49)"/><ellipse class="cls-15" cx="1435.56" cy="834.37" rx="50.13" ry="15" transform="translate(-199.25 1124.9) rotate(-40.24)"/><ellipse class="cls-16" cx="1173.05" cy="728.81" rx="15" ry="50.13" transform="translate(-44.64 1380.3) rotate(-60)"/><ellipse class="cls-17" cx="1249.06" cy="772.28" rx="15" ry="50.13" transform="translate(-44.28 1467.86) rotate(-60)"/><ellipse class="cls-18" cx="1297.38" cy="795.44" rx="15" ry="50.13" transform="translate(-3.34 1585.41) rotate(-62.78)"/><ellipse class="cls-19" cx="1343.95" cy="818.77" rx="15" ry="50.13" transform="translate(-37.1 1573.28) rotate(-60)"/><ellipse class="cls-20" cx="1381.09" cy="835.53" rx="15" ry="50.13" transform="translate(-33.04 1613.82) rotate(-60)"/><ellipse class="cls-21" cx="1474.88" cy="798.44" rx="50.13" ry="15" transform="translate(-166.73 1141.8) rotate(-40.24)"/><ellipse class="cls-22" cx="1502.54" cy="770.83" rx="50.13" ry="15" transform="translate(-142.35 1153.13) rotate(-40.24)"/><ellipse class="cls-23" cx="1614.53" cy="639.29" rx="93.1" ry="54.76" transform="translate(-96.44 935.93) rotate(-31.44)"/><ellipse class="cls-24" cx="1593.76" cy="549.07" rx="139.46" ry="131.06" transform="translate(523.57 1851.46) rotate(-69.6)"/></g><g id="foto"><image width="550" height="460" transform="translate(1132.13 394.31)" xlink:href="starter.png"/></g><g id="starte"><path class="cls-25" d="M408.55,623.36,406,569.67l1.41-.28c13.85,35,31.08,59.34,64.15,59.34,24.58,0,36.74-13.56,36.74-30,0-47.76-100.6-32.21-100.6-98.62,0-33.06,24.58-50.86,68.1-50.86,24.3,0,38.71,5.65,58.78.85l2.83,57.93-1.13.28C523,476.14,509.15,451,477.78,451c-22.32,0-32.5,13-32.5,27.41,0,44.93,101.16,31.93,101.16,98.05,0,35.89-30,54.25-74,54.25C452.63,630.71,426.07,627,408.55,623.36Z"/><path class="cls-25" d="M579.51,591.15V513.72H562.27v-4h17.24V479.25l44.93-8.76v39.28h34.47v4H624.44v85.06c0,14.41,4.8,19.78,13.85,19.78,11.3,0,20.06-8.76,26.56-16.39l1.41,1.13c-10.17,12.15-25.43,27.13-49.45,27.13C594.77,630.42,579.51,617.71,579.51,591.15Z"/><path class="cls-25" d="M670.78,597.08c0-24,22.32-33.06,49.73-33.06a131.5,131.5,0,0,1,30.8,3.67V538c0-16.11-3.39-30-21.76-30-11.87,0-19.21,5.93-24,12.43A22.61,22.61,0,0,1,718,540.57c0,11.59-9.33,20.63-21.48,20.63-13.28,0-20.35-11-20.35-21.19,0-18.65,22.61-33.34,56-33.34,29.67,0,64.15,11.87,64.15,45.78v60.47c0,5.37,2.83,7.91,7.35,7.91,7.06,0,13.56-7.06,18.08-13.85l1.41.85c-7.91,11.3-17.52,22.32-37.3,22.32-17.52,0-27.69-8.76-31.93-19.78-7.63,10.46-20.06,20.06-41.54,20.06C687.74,630.42,670.78,618,670.78,597.08Zm80.53,13.28V570a56.76,56.76,0,0,0-13.56-2.26c-14.69,0-20.91,10.17-20.91,27.13,0,13.85,4.24,26.28,16.39,26.28C739.17,621.1,745.38,618,751.32,610.36Z"/><path class="cls-25" d="M821.11,625.62c15.26,0,17-10.46,17-24.58V538.87c0-14.13-1.7-24.58-17-24.58v-1.7l60.47-5.65v40.41c5.37-20.63,18.08-40.69,38.15-40.69,16.11,0,24.3,12.43,24.3,24a23.1,23.1,0,0,1-22.89,23.45c-12.72,0-23.45-10.17-22.89-25.15-6.22,3.39-11.87,9.61-15.26,18.65V601c0,15.82,4.52,24.58,19.78,24.58v1.7H821.11Z"/><path class="cls-25" d="M966.36,591.15V513.72H949.12v-4h17.24V479.25l44.93-8.76v39.28h34.47v4h-34.47v85.06c0,14.41,4.8,19.78,13.85,19.78,11.3,0,20.06-8.76,26.56-16.39l1.41,1.13c-10.17,12.15-25.43,27.13-49.45,27.13C981.62,630.42,966.36,617.71,966.36,591.15Z"/><path class="cls-25" d="M1055.65,568.82c0-34.19,26.28-62.17,67.25-62.17,36.17,0,59.34,22,60.75,56.52h-81.95c.28,37.3,14.69,60.19,40.41,60.19,18.37,0,31.08-11.87,39.56-22l1.41,1.13c-10.17,12.43-26.56,28-59.34,28C1078.83,630.42,1055.65,601,1055.65,568.82Zm46.06-7.91h38.15c0-11.59.28-52.84-17.8-52.84C1106.52,508.07,1101.71,539.72,1101.71,560.91Z"/><path class="cls-25" d="M408.55,623.4,406,569.75l1.4-.3c13.84,35,31.07,59.31,64.12,59.31,24.57,0,36.72-13.55,36.72-29.92,0-47.74-100.55-32.2-100.55-98.59,0-33,24.57-50.83,68.07-50.83,24.29,0,38.69,5.63,58.75.85l2.82,57.89-1.13.3c-13.27-32.2-27.11-57.33-58.46-57.33-22.32,0-32.48,13-32.48,27.39,0,44.92,101.11,31.92,101.11,98,0,35.88-29.93,54.23-74,54.23C452.6,630.74,426.06,627.08,408.55,623.4Z"/><path class="cls-25" d="M579.52,591.2V513.82H562.28v-4h17.24v-30.5l44.9-8.76v39.26h34.46v4H624.42v85c0,14.4,4.81,19.76,13.84,19.76,11.29,0,20.05-8.74,26.54-16.37l1.41,1.13c-10.17,12.14-25.41,27.11-49.42,27.11C594.76,630.46,579.52,617.74,579.52,591.2Z"/><path class="cls-25" d="M670.79,597.14c0-24,22.31-33,49.71-33a130.4,130.4,0,0,1,30.78,3.68V538.1c0-16.1-3.38-29.94-21.74-29.94-11.87,0-19.2,5.93-24,12.44A22.56,22.56,0,0,1,718,540.66c0,11.57-9.33,20.61-21.47,20.61-13.27,0-20.33-11-20.33-21.18,0-18.63,22.6-33.32,55.92-33.32,29.66,0,64.12,11.87,64.12,45.74V613c0,5.36,2.82,7.91,7.34,7.91,7.06,0,13.56-7.06,18.08-13.84l1.41.85c-7.91,11.29-17.51,22.31-37.28,22.31-17.51,0-27.68-8.76-31.92-19.78-7.62,10.46-20.05,20.05-41.51,20.05C687.74,630.46,670.79,618,670.79,597.14Zm80.49,13.27V570a56.74,56.74,0,0,0-13.56-2.25c-14.68,0-20.89,10.17-20.89,27.11,0,13.82,4.23,26.26,16.37,26.26C739.14,621.15,745.37,618,751.29,610.41Z"/><path class="cls-25" d="M821.13,625.66c15.26,0,16.95-10.44,16.95-24.56V539c0-14.12-1.69-24.58-16.95-24.58v-1.68L881.58,507v40.38c5.36-20.61,18.08-40.66,38.12-40.66,16.11,0,24.3,12.42,24.3,24a23.08,23.08,0,0,1-22.88,23.43c-12.71,0-23.43-10.17-22.87-25.14-6.22,3.38-11.87,9.61-15.26,18.65v53.38c0,15.82,4.52,24.56,19.78,24.56v1.7H821.13Z"/><path class="cls-25" d="M966.39,591.2V513.82H949.15v-4h17.24v-30.5l44.9-8.76v39.26h34.46v4h-34.46v85c0,14.4,4.81,19.76,13.84,19.76,11.29,0,20.05-8.74,26.54-16.37l1.41,1.13c-10.17,12.14-25.41,27.11-49.42,27.11C981.64,630.46,966.39,617.74,966.39,591.2Z"/><path class="cls-25" d="M1055.69,568.9c0-34.18,26.28-62.14,67.22-62.14,36.15,0,59.31,22,60.73,56.48h-81.91c.29,37.28,14.68,60.16,40.4,60.16,18.35,0,31.06-11.87,39.53-22l1.41,1.13c-10.17,12.44-26.55,28-59.31,28C1078.86,630.46,1055.69,601.09,1055.69,568.9Zm46-7.91h38.13c0-11.59.29-52.83-17.79-52.83C1106.54,508.16,1101.73,539.8,1101.73,561Z"/></g><g id="rs"><ellipse class="cls-26" cx="1325.75" cy="531.45" rx="112.42" ry="103.29" transform="translate(365.49 1588.79) rotate(-69.6)"/><ellipse class="cls-27" cx="1299.79" cy="531.78" rx="25.23" ry="27.13"/><ellipse class="cls-28" cx="1425.75" cy="604.86" rx="31.65" ry="15.81" transform="translate(117.36 1433.55) rotate(-55.34)"/><ellipse class="cls-29" cx="1357.94" cy="540" rx="31.65" ry="15.81" transform="translate(292.64 1540.37) rotate(-64.89)"/><ellipse class="cls-30" cx="1392.65" cy="518.37" rx="53.83" ry="20.71"/><path class="cls-25" d="M1197.28,625.66c15.25,0,16.95-10.44,16.95-24.56V539c0-14.12-1.7-24.58-16.95-24.58v-1.68l60.44-5.66v40.38c5.37-20.61,18.08-40.66,38.13-40.66,16.1,0,24.3,12.42,24.3,24a23.08,23.08,0,0,1-22.88,23.43c-12.71,0-23.43-10.17-22.87-25.14-6.22,3.38-11.87,9.61-15.26,18.65v53.38c0,11.87,2.54,19.75,10.25,22.95l-4.44,2.38-17.5-9-13.5,9.93h-36.66Z"/><path class="cls-25" d="M1334.89,625.1c7.22-2.46,9.61-6.87,7.34-14l3.88-2.36c7.5,11.75,17,20,33.69,20,19.77,0,23.16-11.57,23.16-18.35,0-11-8.46-16.5-19.47-21.09l13.66-7.38c2.79-1.71,5.11-2.63,5.86-6.43,1.38-10.62-8.41-16.94-14-15l-33.36,17.58c-12.18-6.28-21.92-15.51-21.92-33.21,0-25.14,19.49-38.13,51.12-38.13,17.51,0,29.38,4,44.06.55l1.41,40.68-1.14.28c-9.31-20.91-20.62-39.81-41.8-39.81-15.54,0-20.05,9.87-20.05,17.5,0,29.37,69.76,17.23,69.76,64.39,0,26.84-22.6,40.11-55.36,40.11C1366,630.46,1346.46,627.36,1334.89,625.1Z"/></g></svg>