<svg id="Layer_1" data-name="Layer 1" xmlns="http://www.w3.org/2000/svg" viewBox="0 0 42 42"><defs><style>.cls-1{fill:#d9d9d9;}</style></defs><title>iconen nailtarget</title><path class="cls-1" d="M21,2A19,19,0,1,1,2,21,19,19,0,0,1,21,2m0-1A20,20,0,1,0,41,21,20,20,0,0,0,21,1Z"/><path class="cls-1" d="M11.29,17.61c0,2.37.95,4.48,3,5.27a.51.51,0,0,0,.73-.34l.3-1.11c.1-.35.06-.47-.21-.77a3.83,3.83,0,0,1-1-2.7c0-3.49,2.75-6.6,7.17-6.6,3.91,0,6.06,2.26,6.06,5.28,0,4-1.86,7.33-4.62,7.33a2.17,2.17,0,0,1-2.3-2.66c.44-1.75,1.29-3.63,1.29-4.89a1.89,1.89,0,0,0-2-2.07c-1.56,0-2.81,1.53-2.81,3.57a5.06,5.06,0,0,0,.47,2.18l-1.87,7.51a14.68,14.68,0,0,0,0,5.24.2.2,0,0,0,.35.08,14.52,14.52,0,0,0,2.63-4.51c.18-.61,1-3.79,1-3.79a4.24,4.24,0,0,0,3.56,1.72c4.69,0,7.86-4,7.86-9.45,0-4.09-3.66-7.9-9.23-7.9-6.92,0-10.41,4.7-10.41,8.61"/></svg>